<?xml version="1.0" encoding="UTF-8"?>
<svg width="350px" height="130px" viewBox="0 0 350 130" version="1.1" xmlns="http://www.w3.org/2000/svg" xmlns:xlink="http://www.w3.org/1999/xlink">
    <title>Frame</title>
    <defs>
        <path d="M0,0 L350,0 L350,130 L0,130 L0,0 Z" id="path-1"></path>
    </defs>
    <g id="Frame" stroke="none" fill="none" xlink:href="#path-1">
        <g id="Group" stroke-width="1" fill-rule="evenodd" transform="translate(-1.2625, 42)">
            <path d="M52.9400895,-29 L126.546592,-29 C135.927765,-29 141.296995,-21.3888407 138.539104,-12 L118.56469,56 C115.806799,65.3888407 105.966144,73 96.5849708,73 L22.9784684,73 C13.5972956,73 8.22806486,65.3888407 10.9859559,56 L30.9603701,-12 C33.7182611,-21.3888407 43.5589167,-29 52.9400895,-29 Z" id="Rectangle" fill="#1C7552"></path>
            <path d="M60.9350978,-17.6666667 L111.893446,-17.6666667 C121.274618,-17.6666667 126.643849,-10.0555074 123.885958,-0.666666667 L110.569682,44.6666667 C107.811791,54.0555074 97.9711353,61.6666667 88.5899625,61.6666667 L37.6316147,61.6666667 C28.2504419,61.6666667 22.8812112,54.0555074 25.6391023,44.6666667 L38.9553783,-0.666666667 C41.7132694,-10.0555074 51.553925,-17.6666667 60.9350978,-17.6666667 Z" id="Rectangle" fill="#34A1DD"></path>
            <path d="M72.4850224,-4.99600361e-16 C59.7224519,-4.99600361e-16 53.559902,4.46315789 50.0757753,16.3649123 L47.2630689,25.9730994 C43.7789423,37.8748538 47.3283972,42.3380117 60.0909678,42.3380117 L73.1025641,42.3380117 L77.1458832,52.1321637 C77.4002134,52.7520468 77.7011661,53 78.8840385,53 L88.4715305,53 C89.8411722,53 90.0977357,51.6982456 89.8693689,51.2023392 L85.6186214,41.9040936 C94.297951,40.5403509 99.0389323,35.8292398 101.924225,25.9730994 L104.736931,16.3649123 C108.221058,4.46315789 104.671603,-4.99600361e-16 91.9090322,-4.99600361e-16 L72.4850224,-4.99600361e-16 Z M60.2609716,15.6610169 C62.017823,9.49152542 63.7881092,8 69.3625426,8 L88.4565791,8 C94.0310125,8 94.9518321,9.49152542 93.1949807,15.6610169 L90.7431112,24.2711864 C88.9862597,30.440678 87.1966675,32 81.622234,32 L62.5281976,32 C56.9537641,32 56.0522506,30.440678 57.809102,24.2711864 L60.2609716,15.6610169 Z" id="Shape" fill="#FFFFFF" fill-rule="nonzero"></path>
        </g>
        <path d="M160.327002,39 C150.034238,39 143.255093,44.5490937 140.668635,52.9141454 L138.799215,58.9601729 C135.905456,68.3190921 139.553298,73.7025412 149.431031,73.7025412 L179.230243,73.7025412 C181.471409,73.7025412 182.108964,74.8620533 181.391926,77.1810775 L180.572455,79.8313909 C179.881025,82.0675929 178.475215,83.3927496 176.151043,83.3927496 L133.485876,83.3927496 C132.074771,83.3927496 131.122848,84.0553279 130.661895,85.5461292 L127.793744,94.8222262 C127.358399,96.2302051 127.874978,96.9756058 129.286083,96.9756058 L174.939472,96.9756058 C185.315242,96.9756058 192.011381,91.4265121 194.57223,83.1442827 L196.62091,76.5184992 C199.514669,67.15958 195.866827,61.7761308 186.0721,61.7761308 L156.189882,61.7761308 C154.031722,61.7761308 153.394167,60.6166187 154.111205,58.2975945 L154.777025,56.1442149 C155.468455,53.9080129 156.848656,52.6656785 159.089822,52.6656785 L199.679835,52.6656785 C201.173946,52.6656785 202.068472,51.9202779 202.529425,50.4294766 L205.397576,41.1533796 C205.83292,39.7454006 205.399348,39 203.905237,39 L160.327002,39 Z" id="Path" fill="#1C7552" fill-rule="nonzero"></path>
        <path d="M231.582825,50 C216.385461,50 209.964678,54.7985612 206.177743,66.9604317 L202.416569,79.0395683 C198.629633,91.2014388 202.062086,96 217.25945,96 L253.415815,96 C254.584843,96 255.349687,95.4208633 255.710348,94.2625899 L258.286494,85.9892086 C258.647155,84.8309353 258.242971,84.2517986 257.073943,84.2517986 L222.337112,84.2517986 C216.324968,84.2517986 215.420663,82.5971223 216.734498,78.3776978 L217.198204,76.8884892 L257.696674,76.8884892 C261.036754,76.8884892 262.90045,75.7302158 264.008193,72.1726619 L266.661624,63.6510791 C269.804523,53.557554 267.822692,50 256.299416,50 L231.582825,50 Z M219.538125,67.4193548 C220.844999,63.5806452 222.795137,62 228.775429,62 L249.208093,62 C251.782941,62 252.472157,62.9032258 251.703407,65.1612903 L250.755283,67.9462366 C250.499033,68.6989247 249.981235,69 249.233698,69 L219,69 L219.538125,67.4193548 Z" id="Shape" fill="#1C7552" fill-rule="nonzero"></path>
        <path d="M299.408033,50 C284.297528,50 277.913442,54.8519949 274.14815,67.1492921 L270.408472,79.3629344 C266.643181,91.6602317 270.056016,96.5122265 285.166521,96.5122265 L314.557285,96.5122265 L309.56251,112.824968 C309.127068,114.247104 309.643763,115 311.055183,115 L320.76908,115 C322.180501,115 323.158251,114.247104 323.593693,112.824968 L337.579063,67.1492921 C341.344355,54.8519949 338.014544,50 322.904039,50 L299.408033,50 Z M284.940367,76.2637363 L287.026551,69.8168498 C289.008426,63.6923077 290.992987,62 297.078841,62 L318.125751,62 C324.211605,62 325.016393,63.6923077 323.034518,69.8168498 L318.444912,84 L289.959737,84 C283.873883,84 282.958491,82.3882784 284.940367,76.2637363 Z" id="Shape" fill="#1C7552" fill-rule="nonzero"></path>
    </g>
</svg>